<?xml version="1.0" standalone="no"?>
<!DOCTYPE svg PUBLIC "-//W3C//DTD SVG 20010904//EN"
 "http://www.w3.org/TR/2001/REC-SVG-20010904/DTD/svg10.dtd">
<svg version="1.0" xmlns="http://www.w3.org/2000/svg"
 width="500.000000pt" height="500.000000pt" viewBox="0 0 500.000000 500.000000"
 preserveAspectRatio="xMidYMid meet">
<metadata>
Created by potrace 1.14, written by Peter Selinger 2001-2017
</metadata>
<g transform="translate(0.000000,500.000000) scale(0.100000,-0.100000)"
fill="#000000" stroke="none">
<path d="M2430 4005 c-156 -28 -275 -82 -342 -156 -103 -113 -100 -213 10
-326 48 -50 72 -65 152 -97 112 -45 170 -95 170 -147 0 -67 -111 -137 -255
-161 -33 -5 -71 -12 -83 -14 -26 -5 -72 -50 -72 -70 0 -7 12 -26 26 -41 23
-25 32 -28 85 -26 105 4 240 46 324 99 235 150 180 371 -122 488 -112 43 -157
103 -128 171 28 67 121 114 275 141 131 22 169 60 118 118 -29 33 -65 38 -158
21z"/>
<path d="M2438 3755 c-54 -30 -64 -95 -24 -142 23 -27 29 -28 113 -29 115 -1
174 -25 243 -101 135 -147 92 -359 -93 -455 -33 -17 -64 -23 -145 -26 -150 -6
-142 14 -142 -333 l0 -277 26 -31 c33 -39 74 -41 109 -6 l25 24 0 225 0 225
38 6 c122 19 205 58 285 134 98 93 147 203 147 330 0 199 -121 368 -315 440
-79 30 -228 39 -267 16z"/>
<path d="M2737 2466 c-36 -36 -36 -79 -1 -111 49 -46 119 -21 130 45 8 46 -18
79 -67 86 -30 5 -40 2 -62 -20z"/>
<path d="M1489 2149 c-15 -15 -17 -24 -9 -39 21 -40 89 -14 75 28 -8 29 -43
34 -66 11z"/>
<path d="M3443 2159 c-33 -12 -31 -57 2 -65 29 -7 55 10 55 37 0 24 -29 39
-57 28z"/>
<path d="M3170 1986 l0 -166 35 0 35 0 -2 163 -3 162 -32 3 -33 3 0 -165z"/>
<path d="M1111 2116 c-28 -15 -50 -52 -51 -82 0 -37 32 -63 105 -87 55 -17 70
-26 70 -42 0 -32 -46 -42 -107 -22 -29 9 -53 15 -54 14 -1 -1 -5 -14 -9 -28
-6 -23 -3 -28 26 -38 76 -26 185 -7 209 38 31 60 1 104 -91 131 -75 23 -95 43
-63 67 18 14 59 13 111 -3 18 -5 25 -1 32 17 7 19 4 26 -13 36 -28 16 -135 16
-165 -1z"/>
<path d="M1480 1940 l0 -120 35 0 35 0 0 120 0 120 -35 0 -35 0 0 -120z"/>
<path d="M1740 1940 l0 -120 35 0 35 0 0 74 c0 82 13 106 55 106 34 0 45 -27
45 -109 l0 -71 35 0 35 0 0 78 c0 82 9 102 45 102 41 0 50 -15 53 -100 l4 -80
29 0 29 0 0 85 c0 94 -11 128 -47 144 -32 15 -57 14 -98 -3 -30 -13 -38 -13
-62 -1 -34 18 -67 19 -96 4 -16 -9 -22 -9 -25 0 -2 6 -19 11 -38 11 l-34 0 0
-120z"/>
<path d="M2330 1895 l0 -165 35 0 35 0 0 56 c0 50 2 55 18 49 82 -36 172 20
172 105 0 40 -30 88 -67 105 -34 17 -74 16 -117 -1 -14 -5 -17 -4 -12 4 5 8
-4 12 -28 12 l-36 0 0 -165z m174 83 c33 -47 7 -98 -50 -98 -37 0 -54 21 -54
67 0 38 16 53 56 53 23 0 38 -7 48 -22z"/>
<path d="M2814 2046 c-44 -20 -64 -53 -64 -107 0 -70 54 -119 131 -119 32 0
89 25 89 39 0 21 -27 30 -59 21 -36 -10 -69 -1 -90 24 -12 14 -5 16 78 16 l91
0 0 33 c0 42 -24 75 -66 93 -41 17 -70 17 -110 0z m97 -55 c32 -26 22 -33 -47
-29 l-59 3 23 23 c27 27 52 28 83 3z"/>
<path d="M3430 1950 c0 -60 -1 -113 -2 -117 -2 -5 12 -9 30 -11 l32 -3 0 120
0 121 -30 0 -30 0 0 -110z"/>
<path d="M3685 1940 l0 -120 33 0 32 0 0 68 c0 81 17 112 60 112 39 0 50 -23
50 -109 l0 -71 35 0 35 0 0 74 c0 91 -14 132 -51 151 -35 19 -66 19 -101 1
-24 -13 -28 -13 -28 0 0 9 -11 14 -32 14 l-33 0 0 -120z"/>
<path d="M2436 1547 c-36 -26 4 -84 42 -61 24 16 27 45 6 61 -10 7 -21 13 -24
13 -3 0 -14 -6 -24 -13z"/>
<path d="M3087 1533 c-4 -3 -7 -78 -7 -165 l0 -158 35 0 c32 0 35 2 35 31 0
17 7 38 16 47 16 15 19 13 50 -23 19 -22 34 -43 34 -47 0 -5 21 -8 46 -8 l46
0 -51 65 c-28 35 -51 68 -51 72 0 4 21 29 47 55 l47 48 -39 0 c-34 0 -48 -7
-87 -45 -27 -25 -50 -45 -53 -45 -3 0 -5 40 -5 88 l0 88 -28 2 c-16 1 -32 -1
-35 -5z"/>
<path d="M1580 1365 l0 -155 35 0 c34 0 35 1 35 40 0 40 0 40 38 40 115 0 181
66 153 153 -18 54 -70 77 -175 77 l-86 0 0 -155z m178 83 c7 -7 12 -27 12 -45
0 -39 -21 -53 -79 -53 l-41 0 0 55 0 55 48 0 c26 0 53 -5 60 -12z"/>
<path d="M2052 1435 c-29 -13 -32 -17 -22 -35 6 -11 12 -20 13 -20 1 0 17 4
36 10 45 13 81 3 81 -21 0 -16 -8 -19 -42 -19 -55 0 -90 -18 -102 -52 -21 -60
64 -111 126 -75 24 14 28 14 28 2 0 -10 10 -15 30 -15 l30 0 0 93 c0 86 -2 95
-25 117 -31 29 -106 37 -153 15z m118 -131 c0 -3 -5 -14 -10 -25 -15 -27 -80
-27 -80 -1 0 10 3 22 7 25 8 8 83 9 83 1z"/>
<path d="M2430 1326 c0 -98 -3 -128 -15 -140 -9 -8 -22 -13 -30 -10 -20 8 -42
-36 -24 -47 28 -17 79 -10 104 16 24 23 25 29 25 165 l0 140 -30 0 -30 0 0
-124z"/>
<path d="M2713 1439 c-33 -10 -40 -23 -24 -48 7 -11 15 -11 43 -2 41 13 88 1
88 -24 0 -11 -12 -15 -49 -15 -61 0 -101 -28 -101 -70 0 -57 86 -91 138 -54
20 14 22 14 22 0 0 -11 10 -16 30 -16 l30 0 0 86 c0 47 -5 94 -10 105 -23 43
-95 59 -167 38z m105 -151 c-2 -18 -11 -24 -37 -26 -18 -2 -38 1 -44 7 -17 17
12 41 50 41 30 0 34 -3 31 -22z"/>
<path d="M3490 1271 c-19 -36 14 -70 53 -55 22 8 31 42 17 59 -18 21 -57 18
-70 -4z"/>
</g>
</svg>
